D:\school\WTK\thesis\model\3dpredictsim\Results\Batchsim_tmt_linear_v2\Pog_s1_tmt_aCst_d00_k800_ig24_act_GRF.mot
nRows=27
nColumns=19

name D:\school\WTK\thesis\model\3dpredictsim\Results\Batchsim_tmt_linear_v2\Pog_s1_tmt_aCst_d00_k800_ig24_act_GRF.mot
datacolumns 19
datarows 27
range 0.6897131314 1.0483639597
endheader
time 	ground_force_vx	ground_force_vy	ground_force_vz	ground_force_px	ground_force_py	ground_force_pz	1_ground_force_vx	1_ground_force_vy	1_ground_force_vz	1_ground_force_px	1_ground_force_py	1_ground_force_pz	ground_torque_x	ground_torque_y	ground_torque_z	1_ground_torque_x	1_ground_torque_y	1_ground_torque_z
        0.6897131314	       40.0128660774	      238.2183081505	       12.8419239417	        0.4833056360	        0.0000000000	        0.0414812701	      -77.0198186471	       64.0094495881	      -13.6428275864	        1.0975865943	        0.0000000000	       -0.0521634308	        0.0000000000	        0.0000000000	        0.0000000000	        0.0000000000	        0.0000000000	        0.0000000000	
        0.7035073940	       36.1028383618	      207.5291916190	       14.1621190365	        0.4839641991	        0.0000000000	        0.0412253803	     -149.1701228071	      253.8396987719	      -31.4002209918	        1.1051241598	        0.0000000000	       -0.0509532113	        0.0000000000	        0.0000000000	        0.0000000000	        0.0000000000	        0.0000000000	        0.0000000000	
        0.7173016567	       34.3990524013	      163.0348602415	       14.3135456986	        0.4844801192	        0.0000000000	        0.0413546998	     -129.4145193948	      579.6531088998	       -0.9716914356	        1.1097822077	        0.0000000000	       -0.0504014229	        0.0000000000	        0.0000000000	        0.0000000000	        0.0000000000	        0.0000000000	        0.0000000000	
        0.7310959193	       27.8609975687	      105.9351613183	       15.9271569070	        0.4851313562	        0.0000000000	        0.0418277773	     -185.7467346633	      870.3199444486	       15.4240438660	        1.1209999071	        0.0000000000	       -0.0527331377	        0.0000000000	        0.0000000000	        0.0000000000	        0.0000000000	        0.0000000000	        0.0000000000	
        0.7448901819	        7.0479582562	       38.5698599264	        8.7586053465	        0.4847188768	        0.0000000000	        0.0421224119	     -236.7652313653	     1016.2959641059	       18.1363601430	        1.1316953773	        0.0000000000	       -0.0552506568	        0.0000000000	        0.0000000000	        0.0000000000	        0.0000000000	        0.0000000000	        0.0000000000	
        0.7586844445	        0.2843415276	       -0.2812391318	       -0.0194558759	        0.0000000000	        0.0000000000	        0.0000000000	     -225.9642071808	      983.0262184082	       16.2207108153	        1.1384393993	        0.0000000000	       -0.0566003704	        0.0000000000	        0.0000000000	        0.0000000000	        0.0000000000	        0.0000000000	        0.0000000000	
        0.7724787072	        0.3198654744	       -0.2415089059	        0.0120111843	        0.0000000000	        0.0000000000	        0.0000000000	     -190.3274566531	      888.0680831318	       14.2621699706	        1.1434464136	        0.0000000000	       -0.0574262856	        0.0000000000	        0.0000000000	        0.0000000000	        0.0000000000	        0.0000000000	        0.0000000000	
        0.7862729698	       -6.1991642240	        3.9804005886	       -0.3199049359	        0.0000000000	        0.0000000000	        0.0000000000	     -162.4625864097	      805.7786938376	       12.1051424884	        1.1481245667	        0.0000000000	       -0.0579819627	        0.0000000000	        0.0000000000	        0.0000000000	        0.0000000000	        0.0000000000	        0.0000000000	
        0.8000672324	       -6.2771498556	        3.5577731215	       -0.3641368477	        0.0000000000	        0.0000000000	        0.0000000000	     -144.3554893619	      764.1258909153	       13.2768057394	        1.1537171510	        0.0000000000	       -0.0584673274	        0.0000000000	        0.0000000000	        0.0000000000	        0.0000000000	        0.0000000000	        0.0000000000	
        0.8138614950	       -5.8763738804	        3.0256870045	       -0.3536175711	        0.0000000000	        0.0000000000	        0.0000000000	     -132.2477043860	      738.2741914662	       13.1135364625	        1.1603794867	        0.0000000000	       -0.0584892000	        0.0000000000	        0.0000000000	        0.0000000000	        0.0000000000	        0.0000000000	        0.0000000000	
        0.8276557577	       -5.9482973864	        2.8626258317	       -0.3357070803	        0.0000000000	        0.0000000000	        0.0000000000	     -119.1726222376	      709.1237151007	       13.1756290701	        1.1663925021	        0.0000000000	       -0.0584071376	        0.0000000000	        0.0000000000	        0.0000000000	        0.0000000000	        0.0000000000	        0.0000000000	
        0.8414500203	       -5.8434674563	        2.7061011846	       -0.2581820890	        0.0000000000	        0.0000000000	        0.0000000000	     -106.7300169558	      679.4941273454	       13.2930624627	        1.1717927170	        0.0000000000	       -0.0582633363	        0.0000000000	        0.0000000000	        0.0000000000	        0.0000000000	        0.0000000000	        0.0000000000	
        0.8552442829	       -5.5110021440	        2.4800865831	       -0.1824259067	        0.0000000000	        0.0000000000	        0.0000000000	      -96.2038010816	      655.1301917175	       13.9904244179	        1.1767918656	        0.0000000000	       -0.0580729535	        0.0000000000	        0.0000000000	        0.0000000000	        0.0000000000	        0.0000000000	        0.0000000000	
        0.8690385456	       -4.8923262826	        2.1590336379	       -0.1111914175	        0.0000000000	        0.0000000000	        0.0000000000	      -86.6337434835	      635.0147144179	       15.0291627391	        1.1814055447	        0.0000000000	       -0.0578978038	        0.0000000000	        0.0000000000	        0.0000000000	        0.0000000000	        0.0000000000	        0.0000000000	
        0.8828328082	       -4.0862760799	        1.7782307101	       -0.0568203695	        0.0000000000	        0.0000000000	        0.0000000000	      -78.2147481163	      617.8784455116	       16.3144614754	        1.1857661148	        0.0000000000	       -0.0577227213	        0.0000000000	        0.0000000000	        0.0000000000	        0.0000000000	        0.0000000000	        0.0000000000	
        0.8966270708	       -3.2666809561	        1.4062527786	       -0.0222099511	        0.0000000000	        0.0000000000	        0.0000000000	      -70.6652827257	      603.3836089030	       17.5978615627	        1.1899046383	        0.0000000000	       -0.0575320948	        0.0000000000	        0.0000000000	        0.0000000000	        0.0000000000	        0.0000000000	        0.0000000000	
        0.9104213334	       -2.6054349480	        1.1095762485	       -0.0057721503	        0.0000000000	        0.0000000000	        0.0000000000	      -63.7195075992	      590.8528964304	       18.7127346880	        1.1937938237	        0.0000000000	       -0.0573250034	        0.0000000000	        0.0000000000	        0.0000000000	        0.0000000000	        0.0000000000	        0.0000000000	
        0.9242155961	       -2.1576868142	        0.9082026882	        0.0006036353	        0.0000000000	        0.0000000000	        0.0000000000	      -57.4258018040	      579.5816696865	       19.5550786426	        1.1973885583	        0.0000000000	       -0.0571084910	        0.0000000000	        0.0000000000	        0.0000000000	        0.0000000000	        0.0000000000	        0.0000000000	
        0.9380098587	       -1.8709224974	        0.7780198810	        0.0029602763	        0.0000000000	        0.0000000000	        0.0000000000	      -51.7617562778	      569.0651140338	       19.9140244057	        1.2006012097	        0.0000000000	       -0.0568965105	        0.0000000000	        0.0000000000	        0.0000000000	        0.0000000000	        0.0000000000	        0.0000000000	
        0.9518041213	       -1.6911506360	        0.6950626639	        0.0038777076	        0.0000000000	        0.0000000000	        0.0000000000	      -46.1239309503	      559.4813378574	       20.4593289634	        1.2034253959	        0.0000000000	       -0.0566797644	        0.0000000000	        0.0000000000	        0.0000000000	        0.0000000000	        0.0000000000	        0.0000000000	
        0.9655983840	       -1.5782768607	        0.6417088279	        0.0036995320	        0.0000000000	        0.0000000000	        0.0000000000	      -40.6022418023	      550.4884717507	       21.2375194953	        1.2058704362	        0.0000000000	       -0.0564488656	        0.0000000000	        0.0000000000	        0.0000000000	        0.0000000000	        0.0000000000	        0.0000000000	
        0.9793926466	       -1.4973001706	        0.6031669625	        0.0027486948	        0.0000000000	        0.0000000000	        0.0000000000	      -35.0323071330	      541.8743521399	       21.9440187257	        1.2079035536	        0.0000000000	       -0.0562174012	        0.0000000000	        0.0000000000	        0.0000000000	        0.0000000000	        0.0000000000	        0.0000000000	
        0.9931869092	       -1.4506075211	        0.5794971264	        0.0012720611	        0.0000000000	        0.0000000000	        0.0000000000	      -29.0527775453	      533.3699862939	       22.3101425143	        1.2095473920	        0.0000000000	       -0.0559876971	        0.0000000000	        0.0000000000	        0.0000000000	        0.0000000000	        0.0000000000	        0.0000000000	
        1.0069811718	       -1.4722411792	        0.5831732336	       -0.0004134836	        0.0000000000	        0.0000000000	        0.0000000000	      -22.6160140302	      525.4805492099	       22.3201439553	        1.2108561663	        0.0000000000	       -0.0557521805	        0.0000000000	        0.0000000000	        0.0000000000	        0.0000000000	        0.0000000000	        0.0000000000	
        1.0207754345	       -1.5593175688	        0.6126324586	       -0.0016194414	        0.0000000000	        0.0000000000	        0.0000000000	      -15.9709365139	      519.1119674636	       22.0350070569	        1.2118364649	        0.0000000000	       -0.0555014633	        0.0000000000	        0.0000000000	        0.0000000000	        0.0000000000	        0.0000000000	        0.0000000000	
        1.0345696971	       -1.6648074776	        0.6492723208	       -0.0012449299	        0.0000000000	        0.0000000000	        0.0000000000	       -9.1501381070	      515.2898604503	       21.2016404122	        1.2125277557	        0.0000000000	       -0.0552349515	        0.0000000000	        0.0000000000	        0.0000000000	        0.0000000000	        0.0000000000	        0.0000000000	
        1.0483639597	       -1.6926690038	        0.6561811802	        0.0015399254	        0.0000000000	        0.0000000000	        0.0000000000	       -2.1560805067	      515.5955196036	       20.3313462528	        1.2130674189	        0.0000000000	       -0.0549132174	        0.0000000000	        0.0000000000	        0.0000000000	        0.0000000000	        0.0000000000	        0.0000000000	
